<?xml version="1.0" encoding="UTF-8"?>
<!-- Generated by Pixelmator Pro 3.5.11 -->
<svg width="532" height="252" viewBox="0 0 532 252" xmlns="http://www.w3.org/2000/svg">
    <path id="Path" fill="#212121" stroke="none" d="M 17.806152 214.940796 L 22.739502 228.02832 L 12.693848 228.02832 Z M 16.556152 212.503296 L 6.256348 238.040894 L 8.864502 238.040894 L 11.943848 230.103394 L 23.564697 230.103394 L 26.677002 238.040894 L 29.2854 238.040894 L 19.2771 212.503296 Z"/>
    <path id="path1" fill="#212121" stroke="none" d="M 31.882813 219.587524 L 33.958008 219.587524 L 33.958008 222.699951 L 34.066162 222.699951 C 35.245361 220.479126 37.174561 219.050049 40.10791 219.050049 C 42.54126 219.050049 44.720459 220.229126 45.399658 222.662476 C 46.507813 220.229126 48.833008 219.050049 51.266357 219.050049 C 55.307861 219.050049 57.382813 221.158325 57.382813 225.525024 L 57.382813 238.041626 L 55.128662 238.041626 L 55.128662 225.62915 C 55.128662 222.587524 53.98291 220.945801 50.766357 220.945801 C 46.870361 220.945801 45.757813 224.166626 45.757813 227.595825 L 45.757813 238.041626 L 43.503662 238.041626 L 43.503662 225.525024 C 43.54126 223.020874 42.503662 220.945801 39.641357 220.945801 C 35.745361 220.945801 34.17041 223.87915 34.132813 227.741699 L 34.132813 238.041626 L 31.882813 238.041626 Z"/>
    <path id="path2" fill="#212121" stroke="none" d="M 62.978027 229.42334 C 63.015381 232.710815 64.736328 236.67749 69.061279 236.67749 C 72.348633 236.67749 74.13623 234.748291 74.853027 231.960815 L 77.107178 231.960815 C 76.140381 236.144165 73.707031 238.577515 69.061279 238.577515 C 63.19458 238.577515 60.728027 234.069214 60.728027 228.810791 C 60.728027 223.948364 63.19458 219.05249 69.061279 219.05249 C 74.998779 219.05249 77.357178 224.23584 77.173828 229.42334 Z M 74.923828 227.527466 C 74.81543 224.127441 72.707031 220.944214 69.061279 220.944214 C 65.37793 220.944214 63.340332 224.165039 62.978027 227.527466 Z"/>
    <path id="path3" fill="#212121" stroke="none" d="M 80.206299 219.587524 L 82.28125 219.587524 L 82.28125 223.912476 L 82.356201 223.912476 C 83.497803 220.945801 86.002197 219.19165 89.322998 219.337524 L 89.322998 221.587524 C 85.247803 221.375 82.460449 224.37915 82.460449 228.208374 L 82.460449 238.041626 L 80.206299 238.041626 Z"/>
    <path id="path4" fill="#212121" stroke="none" d="M 92.216553 216.116577 L 94.470947 216.116577 L 94.470947 212.50415 L 92.216553 212.50415 Z M 92.216553 238.041748 L 94.470947 238.041748 L 94.470947 219.587524 L 92.216553 219.587524 Z"/>
    <path id="path5" fill="#212121" stroke="none" d="M 111.808838 225.379639 C 111.20459 222.625366 109.52124 220.946289 106.587891 220.946289 C 102.262939 220.946289 100.113037 224.879639 100.113037 228.812866 C 100.113037 232.746216 102.262939 236.679565 106.587891 236.679565 C 109.375488 236.679565 111.666992 234.496216 111.95459 231.425415 L 114.20459 231.425415 C 113.596191 235.854614 110.700439 238.575439 106.587891 238.575439 C 100.937988 238.575439 97.863037 234.104614 97.863037 228.812866 C 97.863037 223.52124 100.937988 219.050415 106.587891 219.050415 C 110.52124 219.050415 113.558838 221.158691 114.062988 225.379639 Z"/>
    <path id="path6" fill="#212121" stroke="none" d="M 117.128662 225.239136 C 117.341309 220.910034 120.378662 219.051636 124.599609 219.051636 C 127.85376 219.051636 131.395508 220.051636 131.395508 224.989136 L 131.395508 234.785034 C 131.395508 235.643311 131.824463 236.143311 132.720459 236.143311 L 133.432861 236.001709 L 133.432861 237.897461 C 132.932861 238.005859 132.574463 238.039185 131.966309 238.039185 C 129.678711 238.039185 129.320313 236.751709 129.320313 234.82251 L 129.249512 234.82251 C 127.678711 237.214111 126.070313 238.57666 122.524658 238.57666 C 119.128662 238.57666 116.337158 236.897461 116.337158 233.176636 C 116.337158 227.993286 121.382813 227.814209 126.245361 227.239136 C 128.10791 227.026611 129.141357 226.776611 129.141357 224.739136 C 129.141357 221.69751 126.962158 220.94751 124.316162 220.94751 C 121.524658 220.94751 119.453857 222.234985 119.378662 225.239136 Z M 129.141357 227.955811 L 129.070313 227.955811 C 128.787109 228.493286 127.782959 228.672485 127.174561 228.776611 C 123.349609 229.455811 118.595459 229.422485 118.595459 233.030884 C 118.595459 235.285034 120.599609 236.680786 122.708008 236.680786 C 126.136963 236.680786 129.178711 234.497559 129.141357 230.88916 Z"/>
    <path id="path7" fill="#212121" stroke="none" d="M 138.86084 212.504639 L 138.86084 216.33374 C 138.823242 218.408691 137.86084 220.587891 135.67749 221.196289 L 135.67749 219.658691 C 136.898438 219.229614 137.431641 217.475464 137.36084 216.296265 L 135.856689 216.296265 L 135.856689 212.504639 Z"/>
    <path id="path8" fill="#212121" stroke="none" d="M 152.195313 224.987549 C 152.087158 222.195801 149.941162 220.945801 147.366211 220.945801 C 145.366211 220.945801 143.003662 221.733276 143.003662 224.12915 C 143.003662 226.133301 145.29126 226.845825 146.833008 227.237549 L 149.837158 227.920776 C 152.407959 228.3125 155.091309 229.81665 155.091309 233.033325 C 155.091309 237.037476 151.124512 238.574951 147.691162 238.574951 C 143.399658 238.574951 140.466309 236.570801 140.10791 232.06665 L 142.362061 232.06665 C 142.54126 235.108276 144.79541 236.679199 147.79541 236.679199 C 149.907959 236.679199 152.837158 235.75 152.837158 233.175049 C 152.837158 231.029175 150.837158 230.31665 148.799561 229.81665 L 145.903809 229.170776 C 142.970459 228.383301 140.753662 227.37915 140.753662 224.233276 C 140.753662 220.479126 144.437012 219.050049 147.691162 219.050049 C 151.374512 219.050049 154.307861 220.983276 154.449463 224.987549 Z"/>
    <path id="path9" fill="#212121" stroke="none" d="M 168.702393 212.504639 L 184.902588 212.504639 L 184.902588 214.57959 L 171.135742 214.57959 L 171.135742 223.808716 L 183.36499 223.808716 L 183.36499 225.879639 L 171.135742 225.879639 L 171.135742 238.042114 L 168.702393 238.042114 Z"/>
    <path id="path10" fill="#212121" stroke="none" d="M 186.537842 225.239136 C 186.754639 220.910034 189.791992 219.051636 194.012939 219.051636 C 197.26709 219.051636 200.808838 220.051636 200.808838 224.989136 L 200.808838 234.785034 C 200.808838 235.643311 201.233643 236.143311 202.129639 236.143311 L 202.846191 236.001709 L 202.846191 237.897461 C 202.342041 238.005859 201.988037 238.039185 201.379639 238.039185 C 199.092041 238.039185 198.733643 236.751709 198.733643 234.82251 L 198.658691 234.82251 C 197.087891 237.214111 195.475342 238.57666 191.937988 238.57666 C 188.541992 238.57666 185.750488 236.897461 185.750488 233.176636 C 185.750488 227.993286 190.796143 227.814209 195.658691 227.239136 C 197.512939 227.026611 198.554688 226.776611 198.554688 224.739136 C 198.554688 221.69751 196.371338 220.94751 193.725342 220.94751 C 190.937988 220.94751 188.863037 222.234985 188.791992 225.239136 Z M 198.554688 227.955811 L 198.479492 227.955811 C 198.196289 228.493286 197.196289 228.672485 196.587891 228.776611 C 192.758789 229.455811 188.004639 229.422485 188.004639 233.030884 C 188.004639 235.285034 190.004639 236.680786 192.117188 236.680786 C 195.550537 236.680786 198.592041 234.497559 198.554688 230.88916 Z"/>
    <path id="path11" fill="#212121" stroke="none" d="M 202.515381 219.587524 L 205.019531 219.587524 L 210.811279 235.787476 L 210.88208 235.787476 L 216.603027 219.587524 L 218.927979 219.587524 L 212.023682 238.041626 L 209.62793 238.041626 Z"/>
    <path id="path12" fill="#212121" stroke="none" d="M 236.94458 228.8125 C 236.94458 234.104126 233.865479 238.574951 228.215332 238.574951 C 222.56543 238.574951 219.490479 234.104126 219.490479 228.8125 C 219.490479 223.520874 222.56543 219.050049 228.215332 219.050049 C 233.865479 219.050049 236.94458 223.520874 236.94458 228.8125 M 221.744629 228.8125 C 221.744629 232.74585 223.890381 236.679199 228.215332 236.679199 C 232.544678 236.679199 234.686279 232.74585 234.686279 228.8125 C 234.686279 224.87915 232.544678 220.945801 228.215332 220.945801 C 223.890381 220.945801 221.744629 224.87915 221.744629 228.8125"/>
    <path id="path13" fill="#212121" stroke="none" d="M 240.294189 219.587524 L 242.369141 219.587524 L 242.369141 223.912476 L 242.439941 223.912476 C 243.581787 220.945801 246.085938 219.19165 249.410889 219.337524 L 249.410889 221.587524 C 245.335938 221.375 242.54834 224.37915 242.54834 228.208374 L 242.54834 238.041626 L 240.294189 238.041626 Z"/>
    <path id="path14" fill="#212121" stroke="none" d="M 252.304199 216.116577 L 254.55835 216.116577 L 254.55835 212.50415 L 252.304199 212.50415 Z M 252.304199 238.041748 L 254.55835 238.041748 L 254.55835 219.587524 L 252.304199 219.587524 Z"/>
    <path id="path15" fill="#212121" stroke="none" d="M 263.170898 219.587524 L 266.925049 219.587524 L 266.925049 221.483276 L 263.170898 221.483276 L 263.170898 233.929199 C 263.170898 235.395874 263.383301 236.25 264.99585 236.358276 C 265.637451 236.358276 266.283447 236.320801 266.925049 236.25 L 266.925049 238.18335 C 266.24585 238.18335 265.604248 238.25415 264.920898 238.25415 C 261.920898 238.25415 260.883301 237.25 260.916748 234.104126 L 260.916748 221.483276 L 257.699951 221.483276 L 257.699951 219.587524 L 260.916748 219.587524 L 260.916748 214.041626 L 263.170898 214.041626 Z"/>
    <path id="path16" fill="#212121" stroke="none" d="M 270.784912 229.42334 C 270.818359 232.710815 272.534912 236.67749 276.864258 236.67749 C 280.151611 236.67749 281.939209 234.748291 282.655762 231.960815 L 284.905762 231.960815 C 283.943359 236.144165 281.51001 238.577515 276.864258 238.577515 C 270.997559 238.577515 268.530762 234.069214 268.530762 228.810791 C 268.530762 223.948364 270.997559 219.05249 276.864258 219.05249 C 282.797607 219.05249 285.159912 224.23584 284.980713 229.42334 Z M 282.726563 227.527466 C 282.618408 224.127441 280.51001 220.944214 276.864258 220.944214 C 273.180908 220.944214 271.13916 224.165039 270.784912 227.527466 Z"/>
    <path id="path17" fill="#212121" stroke="none" d="M 320.189941 238.040405 L 318.435791 238.040405 L 318.11499 233.390381 L 318.044189 233.390381 C 316.327393 237.036255 312.894287 238.577881 309.210938 238.577881 C 301.160889 238.577881 297.156738 232.244629 297.156738 225.273804 C 297.156738 218.298706 301.160889 211.969604 309.210938 211.969604 C 314.573242 211.969604 318.939941 214.865479 319.869141 220.44458 L 317.435791 220.44458 C 317.11499 217.51123 314.073242 214.044556 309.210938 214.044556 C 302.452393 214.044556 299.590088 219.69458 299.590088 225.273804 C 299.590088 230.848755 302.452393 236.50293 309.210938 236.50293 C 314.86084 236.50293 318.152588 232.532104 318.044189 227.13208 L 309.356689 227.13208 L 309.356689 225.057129 L 320.189941 225.057129 Z"/>
    <path id="path18" fill="#212121" stroke="none" d="M 324.215088 225.239136 C 324.431641 220.910034 327.469238 219.051636 331.689941 219.051636 C 334.939941 219.051636 338.48584 220.051636 338.48584 224.989136 L 338.48584 234.785034 C 338.48584 235.643311 338.915039 236.143311 339.806641 236.143311 L 340.523438 236.001709 L 340.523438 237.897461 C 340.023438 238.005859 339.665039 238.039185 339.05249 238.039185 C 336.764893 238.039185 336.410889 236.751709 336.410889 234.82251 L 336.340088 234.82251 C 334.764893 237.214111 333.156738 238.57666 329.61499 238.57666 C 326.219238 238.57666 323.431641 236.897461 323.431641 233.176636 C 323.431641 227.993286 328.469238 227.814209 333.335938 227.239136 C 335.194092 227.026611 336.231689 226.776611 336.231689 224.739136 C 336.231689 221.69751 334.04834 220.94751 331.402588 220.94751 C 328.61499 220.94751 326.540039 222.234985 326.465088 225.239136 Z M 336.231689 227.955811 L 336.160889 227.955811 C 335.873291 228.493286 334.873291 228.672485 334.260742 228.776611 C 330.439941 229.455811 325.681641 229.422485 325.681641 233.030884 C 325.681641 235.285034 327.681641 236.680786 329.794189 236.680786 C 333.227539 236.680786 336.264893 234.497559 336.231689 230.88916 Z"/>
    <path id="path19" fill="#212121" stroke="none" d="M 342.97876 219.587524 L 345.053711 219.587524 L 345.053711 223.912476 L 345.124512 223.912476 C 346.270508 220.945801 348.774658 219.19165 352.099609 219.337524 L 352.099609 221.587524 C 348.020508 221.375 345.23291 224.37915 345.23291 228.208374 L 345.23291 238.041626 L 342.97876 238.041626 Z"/>
    <path id="path20" fill="#212121" stroke="none" d="M 354.020752 225.239136 C 354.237549 220.910034 357.279053 219.051636 361.49585 219.051636 C 364.75 219.051636 368.291748 220.051636 368.291748 224.989136 L 368.291748 234.785034 C 368.291748 235.643311 368.720947 236.143311 369.616699 236.143311 L 370.333252 236.001709 L 370.333252 237.897461 C 369.829102 238.005859 369.470947 238.039185 368.862549 238.039185 C 366.574951 238.039185 366.220947 236.751709 366.220947 234.82251 L 366.145752 234.82251 C 364.574951 237.214111 362.962402 238.57666 359.425049 238.57666 C 356.024902 238.57666 353.237549 236.897461 353.237549 233.176636 C 353.237549 227.993286 358.279053 227.814209 363.141602 227.239136 C 365.00415 227.026611 366.037598 226.776611 366.037598 224.739136 C 366.037598 221.69751 363.858398 220.94751 361.212402 220.94751 C 358.425049 220.94751 356.345947 222.234985 356.274902 225.239136 Z M 366.037598 227.955811 L 365.966553 227.955811 C 365.68335 228.493286 364.679199 228.672485 364.070801 228.776611 C 360.24585 229.455811 355.487549 229.422485 355.487549 233.030884 C 355.487549 235.285034 357.491699 236.680786 359.600098 236.680786 C 363.033447 236.680786 366.074951 234.497559 366.037598 230.88916 Z"/>
    <path id="path21" fill="#212121" stroke="none" d="M 388.380371 236.535889 C 388.343018 242.044189 386.234619 245.406616 380.188721 245.406616 C 376.505371 245.406616 372.859619 243.760864 372.534668 239.827515 L 374.792969 239.827515 C 375.288818 242.544189 377.68457 243.510864 380.188721 243.510864 C 384.334473 243.510864 386.126221 241.044189 386.126221 236.535889 L 386.126221 234.035889 L 386.05542 234.035889 C 385.017822 236.285889 382.834473 237.827515 380.188721 237.827515 C 374.288818 237.827515 371.855469 233.602539 371.855469 228.348389 C 371.855469 223.269165 374.859619 219.05249 380.188721 219.05249 C 382.87207 219.05249 385.159668 220.731689 386.05542 222.769165 L 386.126221 222.769165 L 386.126221 219.585815 L 388.380371 219.585815 Z M 386.126221 228.598389 C 386.126221 224.98584 384.442871 220.944214 380.188721 220.944214 C 375.896973 220.944214 374.109619 224.773315 374.109619 228.598389 C 374.109619 232.319214 376.042969 235.92749 380.188721 235.92749 C 384.088867 235.92749 386.126221 232.352539 386.126221 228.598389"/>
    <path id="path22" fill="#212121" stroke="none" d="M 393.985352 229.42334 C 394.014648 232.710815 395.735352 236.67749 400.064697 236.67749 C 403.352051 236.67749 405.139648 234.748291 405.856201 231.960815 L 408.106201 231.960815 C 407.143799 236.144165 404.710449 238.577515 400.064697 238.577515 C 394.197998 238.577515 391.727051 234.069214 391.727051 228.810791 C 391.727051 223.948364 394.197998 219.05249 400.064697 219.05249 C 405.997803 219.05249 408.360352 224.23584 408.181152 229.42334 Z M 405.927002 227.527466 C 405.818848 224.127441 403.710449 220.944214 400.064697 220.944214 C 396.377197 220.944214 394.34375 224.165039 393.985352 227.527466 Z"/>
    <path id="path23" fill="#212121" stroke="none" d="M 421.575439 212.505371 L 430.404541 212.505371 C 438.096191 212.68457 442.137939 216.905396 442.137939 225.272095 C 442.137939 233.642944 438.096191 237.859619 430.404541 238.038696 L 421.575439 238.038696 Z M 424.004639 235.963745 L 429.192139 235.963745 C 436.52124 236.001221 439.70459 232.888794 439.70459 225.272095 C 439.70459 217.655396 436.52124 214.547119 429.192139 214.580444 L 424.004639 214.580444 Z"/>
    <path id="path24" fill="#212121" stroke="none" d="M 462.149658 228.8125 C 462.149658 234.104126 459.074463 238.574951 453.424561 238.574951 C 447.774658 238.574951 444.699463 234.104126 444.699463 228.8125 C 444.699463 223.520874 447.774658 219.050049 453.424561 219.050049 C 459.074463 219.050049 462.149658 223.520874 462.149658 228.8125 M 446.953857 228.8125 C 446.953857 232.74585 449.095459 236.679199 453.424561 236.679199 C 457.749512 236.679199 459.895508 232.74585 459.895508 228.8125 C 459.895508 224.87915 457.749512 220.945801 453.424561 220.945801 C 449.095459 220.945801 446.953857 224.87915 446.953857 228.8125"/>
    <path id="path25" fill="#212121" stroke="none" d="M 482.023438 228.8125 C 482.023438 234.104126 478.948242 238.574951 473.294189 238.574951 C 467.648438 238.574951 464.569092 234.104126 464.569092 228.8125 C 464.569092 223.520874 467.648438 219.050049 473.294189 219.050049 C 478.948242 219.050049 482.023438 223.520874 482.023438 228.8125 M 466.823242 228.8125 C 466.823242 232.74585 468.969238 236.679199 473.294189 236.679199 C 477.619141 236.679199 479.769287 232.74585 479.769287 228.8125 C 479.769287 224.87915 477.619141 220.945801 473.294189 220.945801 C 468.969238 220.945801 466.823242 224.87915 466.823242 228.8125"/>
    <path id="path26" fill="#212121" stroke="none" d="M 485.37207 219.587524 L 487.447021 219.587524 L 487.447021 223.912476 L 487.521973 223.912476 C 488.663818 220.945801 491.167969 219.19165 494.49292 219.337524 L 494.49292 221.587524 C 490.413818 221.375 487.626221 224.37915 487.626221 228.208374 L 487.626221 238.041626 L 485.37207 238.041626 Z"/>
    <path id="path27" fill="#212121" stroke="none" d="M 507.682129 224.987549 C 507.57373 222.195801 505.427979 220.945801 502.853027 220.945801 C 500.848633 220.945801 498.490479 221.733276 498.490479 224.12915 C 498.490479 226.133301 500.777832 226.845825 502.31958 227.237549 L 505.31958 227.920776 C 507.894531 228.3125 510.577881 229.81665 510.577881 233.033325 C 510.577881 237.037476 506.607178 238.574951 503.173828 238.574951 C 498.88623 238.574951 495.94873 236.570801 495.590332 232.06665 L 497.848633 232.06665 C 498.023682 235.108276 500.277832 236.679199 503.281982 236.679199 C 505.390381 236.679199 508.32373 235.75 508.32373 233.175049 C 508.32373 231.029175 506.32373 230.31665 504.281982 229.81665 L 501.38623 229.170776 C 498.452881 228.383301 496.236328 227.37915 496.236328 224.233276 C 496.236328 220.479126 499.919678 219.050049 503.173828 219.050049 C 506.857178 219.050049 509.790527 220.983276 509.936279 224.987549 Z"/>
    <path id="path28" fill="#212121" stroke="none" d="M 525.744141 217.47583 C 525.744141 221.280029 522.794189 224.246704 518.969238 224.246704 C 515.148438 224.246704 512.198242 221.280029 512.198242 217.47583 C 512.198242 213.671631 515.148438 210.704956 518.969238 210.704956 C 522.794189 210.704956 525.744141 213.671631 525.744141 217.47583 M 513.256592 217.47583 C 513.256592 220.717529 515.694092 223.28418 518.969238 223.28418 C 522.248291 223.28418 524.689941 220.717529 524.689941 217.47583 C 524.689941 214.234131 522.248291 211.66748 518.969238 211.66748 C 515.694092 211.66748 513.256592 214.234131 513.256592 217.47583 M 517.477539 221.388306 L 516.514893 221.388306 L 516.514893 213.559204 L 519.519287 213.559204 C 521.285889 213.559204 522.069092 214.325806 522.069092 215.72998 C 522.069092 217.113281 521.156738 217.72998 520.102539 217.91333 L 522.431641 221.388306 L 521.30249 221.388306 L 519.098389 217.91333 L 517.477539 217.91333 Z M 518.752441 217.092529 C 519.935791 217.092529 521.102539 217.059204 521.102539 215.72998 C 521.102539 214.638306 520.189941 214.380005 519.244141 214.380005 L 517.477539 214.380005 L 517.477539 217.092529 Z"/>
    <path id="path29" fill="#f5d65c" stroke="none" d="M 67.045654 182.445801 L 465.466797 182.445801 L 465.466797 6.595825 L 67.045654 6.595825 Z"/>
    <path id="path30" fill="#fae399" stroke="none" d="M 449.862061 22.19751 L 465.466309 6.593384 L 67.04541 6.593384 L 82.645508 22.19751 Z"/>
    <path id="path31" fill="#deab1a" stroke="none" d="M 82.646729 166.842896 L 67.04248 182.447144 L 465.463379 182.447144 L 449.863281 166.842896 Z"/>
    <path id="path32" fill="#edc412" stroke="none" d="M 82.646729 22.19751 L 67.04248 6.593384 L 67.04248 182.44751 L 82.646729 166.843384 Z"/>
    <path id="path33" fill="#f2c942" stroke="none" d="M 449.862061 22.19751 L 449.862061 166.843384 L 465.466309 182.44751 L 465.466309 6.593384 Z"/>
    <path id="path34" fill="#212121" stroke="none" d="M 179.510742 126.118286 L 179.510742 126.118286 L 179.510742 109.614136 C 179.510742 102.005859 173.36499 95.88501 165.748291 95.88501 L 112.590088 95.88501 L 112.590088 112.38916 C 112.590088 119.997559 118.731689 126.118286 126.348389 126.118286 Z"/>
    <path id="path35" fill="#212121" stroke="none" d="M 179.510742 60.752075 L 179.510742 60.752075 L 179.510742 77.252075 C 179.510742 84.860474 173.36499 90.981201 165.748291 90.981201 L 112.590088 90.981201 L 112.590088 74.481201 C 112.590088 66.872925 118.731689 60.752075 126.348389 60.752075 Z"/>
    <path id="path36" fill="#212121" stroke="none" d="M 264.291748 65.604248 L 248.904053 65.604248 L 248.904053 118.479248 L 264.291748 118.479248 Z"/>
    <path id="path37" fill="#212121" stroke="none" d="M 220.686279 110.085815 C 220.686279 111.623291 221.557129 112.756714 223.361328 112.756714 C 225.165527 112.756714 226.01123 111.544189 226.01123 110.119141 L 226.01123 98.36499 L 244.419678 98.36499 L 244.419678 109.406616 C 244.419678 115.602539 241.38208 118.477539 235.161133 118.477539 L 213.215332 118.477539 C 206.048828 118.477539 202.544678 115.11084 202.544678 107.998291 L 202.544678 74.819214 C 202.544678 69.11084 207.015381 65.631714 212.25708 65.631714 L 233.744629 65.631714 C 240.423828 65.631714 244.419678 69.556641 244.419678 76.23999 L 244.419678 87.61084 L 226.01123 87.61084 L 226.01123 74.581665 C 226.01123 73.156616 225.165527 71.939941 223.361328 71.939941 C 221.557129 71.939941 220.686279 73.081665 220.686279 74.61499 Z"/>
    <path id="path38" fill="#212121" stroke="none" d="M 275.640381 118.47876 C 271.603027 118.47876 268.31543 115.174561 268.31543 111.137085 L 268.31543 89.362061 C 268.31543 85.324585 271.603027 82.049561 275.640381 82.049561 L 293.31543 82.049561 C 297.365479 82.049561 300.644531 85.324585 300.644531 89.362061 L 300.644531 111.137085 C 300.644531 115.174561 297.365479 118.47876 293.31543 118.47876 Z M 284.294678 114.307861 C 285.711182 114.307861 286.869629 113.153809 286.869629 111.737061 L 286.869629 89.466309 C 286.869629 88.04541 285.711182 86.895386 284.294678 86.895386 C 282.861328 86.895386 281.719482 88.04541 281.719482 89.466309 L 281.719482 111.737061 C 281.719482 113.153809 282.861328 114.307861 284.294678 114.307861"/>
    <path id="path39" fill="#212121" stroke="none" d="M 318.57373 84.764526 C 319.736328 83.989624 322.369629 81.881226 326.527832 81.881226 C 331.19043 81.881226 335.702881 85.102051 335.702881 90.460449 L 335.702881 109.372925 C 335.702881 118.047974 329.281982 118.477051 325.677979 118.477051 C 321.336182 118.477051 319.94873 117.706299 319.027832 117.435425 C 318.103027 117.164551 317.748779 116.885376 317.748779 118.4729 L 317.748779 130.822876 L 304.490479 130.822876 L 304.490479 82.052124 L 317.748779 82.052124 L 317.748779 83.806274 C 317.748779 84.522949 317.802979 85.289551 318.57373 84.764526 M 320.25708 113.831299 C 321.682129 113.831299 322.827881 112.677124 322.827881 111.260376 L 322.827881 90.052124 C 322.827881 88.635376 321.682129 87.485474 320.25708 87.485474 C 318.836182 87.485474 317.677979 88.635376 317.677979 90.052124 L 317.677979 111.260376 C 317.677979 112.677124 318.836182 113.831299 320.25708 113.831299"/>
    <path id="path40" fill="#212121" stroke="none" d="M 372.846191 82.050781 L 386.221191 82.050781 L 393.51709 102.392456 L 400.604492 82.050781 L 410.679688 82.050781 C 410.679688 82.050781 397.475342 119.775879 395.783691 124.425781 C 394.08374 129.075806 392.383789 129.996704 388.108643 129.996704 L 374.750488 129.996704 L 374.750488 124.988281 L 384.291992 124.988281 C 387.121338 124.988281 388.012939 123.884155 386.904541 120.821655 C 385.575439 117.15918 372.846191 82.050781 372.846191 82.050781"/>
    <path id="path41" fill="#212121" stroke="none" d="M 339.66748 94.033691 L 339.66748 90.887939 C 339.66748 86.321289 342.825928 82.050415 349.304932 82.050415 L 362.517578 82.050415 C 368.084229 82.050415 371.97583 85.475464 371.97583 90.64624 L 371.97583 118.479614 L 359.438232 118.479614 C 358.392578 118.479614 358.03418 118.258789 357.955078 117.621216 C 357.859131 116.796265 357.863281 116.387939 357.175781 117.046265 C 356.330078 117.854614 355.03833 118.479614 352.15918 118.479614 L 347.934082 118.479614 C 345.071777 118.479614 339.60498 116.95459 339.60498 108.721191 C 339.60498 103.875366 341.921631 101.187866 345.60498 99.354614 C 349.771729 97.283691 355.705078 94.32959 356.625732 93.875366 C 357.554932 93.433716 357.934082 93.20874 357.934082 91.45459 L 357.934082 89.887939 C 357.934082 88.279541 357.142578 86.858765 355.238281 86.858765 C 353.484131 86.858765 352.813232 88.39624 352.813232 89.971191 L 352.813232 94.033691 Z M 355.392578 112.212891 C 356.813232 112.212891 357.967529 111.062866 357.967529 109.64209 L 357.967529 101.383789 C 357.967529 99.962891 356.813232 98.817139 355.392578 98.817139 C 353.959229 98.817139 352.813232 99.962891 352.813232 101.383789 L 352.813232 109.64209 C 352.813232 111.062866 353.959229 112.212891 355.392578 112.212891"/>
    <path id="path42" fill="#212121" stroke="none" d="M 427.175781 85.740356 C 427.175781 89.544556 424.22583 92.51123 420.400879 92.51123 C 416.575928 92.51123 413.625732 89.544556 413.625732 85.740356 C 413.625732 81.936279 416.575928 78.969604 420.400879 78.969604 C 424.22583 78.969604 427.175781 81.936279 427.175781 85.740356 M 414.684082 85.740356 C 414.684082 88.982056 417.121582 91.548706 420.400879 91.548706 C 423.679932 91.548706 426.117432 88.982056 426.117432 85.740356 C 426.117432 82.498779 423.679932 79.936279 420.400879 79.936279 C 417.121582 79.936279 414.684082 82.498779 414.684082 85.740356 M 418.90918 89.652954 L 417.946777 89.652954 L 417.946777 81.827881 L 420.950928 81.827881 C 422.713379 81.827881 423.496582 82.590454 423.496582 83.994629 C 423.496582 85.37793 422.588379 85.994629 421.53418 86.177856 L 423.863281 89.652954 L 422.72998 89.652954 L 420.530029 86.177856 L 418.90918 86.177856 Z M 420.184082 85.357056 C 421.367432 85.357056 422.53418 85.32373 422.53418 83.994629 C 422.53418 82.902954 421.621582 82.644531 420.671631 82.644531 L 418.90918 82.644531 L 418.90918 85.357056 Z"/>
</svg>
