<svg xmlns="http://www.w3.org/2000/svg" xmlns:xlink="http://www.w3.org/1999/xlink" width="1200" zoomAndPan="magnify" viewBox="0 0 900 179.999997" height="240" preserveAspectRatio="xMidYMid meet" version="1.0"><defs><g/></defs><g fill="#2e3192" fill-opacity="1"><g transform="translate(30.898234, 146.586816)"><g><path d="M 52.390625 -107.28125 C 65.503906 -107.28125 76.304688 -103.09375 84.796875 -94.71875 C 93.296875 -86.34375 97.546875 -75.597656 97.546875 -62.484375 L 97.546875 -44.71875 C 97.546875 -31.550781 93.296875 -20.804688 84.796875 -12.484375 C 76.304688 -4.160156 65.503906 0 52.390625 0 L 4.125 0 L 4.125 -12.890625 L 15.546875 -15.109375 L 15.546875 -92.09375 L 4.125 -94.3125 L 4.125 -107.28125 Z M 37.0625 -90.703125 L 37.0625 -16.5 L 51.28125 -16.5 C 58.988281 -16.5 65.03125 -19.101562 69.40625 -24.3125 C 73.78125 -29.519531 75.96875 -36.320312 75.96875 -44.71875 L 75.96875 -62.625 C 75.96875 -70.925781 73.78125 -77.679688 69.40625 -82.890625 C 65.03125 -88.097656 58.988281 -90.703125 51.28125 -90.703125 Z M 37.0625 -90.703125 "/></g></g><g transform="translate(134.861784, 146.586816)"><g><path d="M 4.640625 -40.59375 C 4.640625 -52.476562 7.96875 -62.210938 14.625 -69.796875 C 21.28125 -77.390625 30.476562 -81.1875 42.21875 -81.1875 C 54.007812 -81.1875 63.226562 -77.40625 69.875 -69.84375 C 76.53125 -62.28125 79.859375 -52.53125 79.859375 -40.59375 L 79.859375 -39.046875 C 79.859375 -27.066406 76.53125 -17.304688 69.875 -9.765625 C 63.226562 -2.222656 54.054688 1.546875 42.359375 1.546875 C 30.523438 1.546875 21.28125 -2.222656 14.625 -9.765625 C 7.96875 -17.304688 4.640625 -27.066406 4.640625 -39.046875 Z M 26.15625 -39.046875 C 26.15625 -31.773438 27.429688 -25.941406 29.984375 -21.546875 C 32.535156 -17.148438 36.660156 -14.953125 42.359375 -14.953125 C 47.910156 -14.953125 51.972656 -17.160156 54.546875 -21.578125 C 57.128906 -26.003906 58.421875 -31.828125 58.421875 -39.046875 L 58.421875 -40.59375 C 58.421875 -47.664062 57.117188 -53.4375 54.515625 -57.90625 C 51.910156 -62.375 47.8125 -64.609375 42.21875 -64.609375 C 36.613281 -64.609375 32.535156 -62.375 29.984375 -57.90625 C 27.429688 -53.4375 26.15625 -47.664062 26.15625 -40.59375 Z M 26.15625 -39.046875 "/></g></g><g transform="translate(219.447295, 146.586816)"><g><path d="M 3.46875 -12.890625 L 13.78125 -15.109375 L 13.78125 -64.546875 L 2.359375 -66.75 L 2.359375 -79.71875 L 33.8125 -79.71875 L 34.78125 -68.296875 C 37.425781 -72.367188 40.6875 -75.535156 44.5625 -77.796875 C 48.445312 -80.054688 52.796875 -81.1875 57.609375 -81.1875 C 65.671875 -81.1875 71.957031 -78.65625 76.46875 -73.59375 C 80.988281 -68.539062 83.25 -60.613281 83.25 -49.8125 L 83.25 -15.109375 L 93.5625 -12.890625 L 93.5625 0 L 52.453125 0 L 52.453125 -12.890625 L 61.671875 -15.109375 L 61.671875 -49.734375 C 61.671875 -55.085938 60.585938 -58.878906 58.421875 -61.109375 C 56.265625 -63.347656 53 -64.46875 48.625 -64.46875 C 45.78125 -64.46875 43.226562 -63.890625 40.96875 -62.734375 C 38.707031 -61.578125 36.816406 -59.945312 35.296875 -57.84375 L 35.296875 -15.109375 L 43.984375 -12.890625 L 43.984375 0 L 3.46875 0 Z M 3.46875 -12.890625 "/></g></g><g transform="translate(315.232281, 146.586816)"><g/></g><g transform="translate(352.220022, 146.586816)"><g><path d="M 52.390625 -107.28125 C 65.503906 -107.28125 76.304688 -103.09375 84.796875 -94.71875 C 93.296875 -86.34375 97.546875 -75.597656 97.546875 -62.484375 L 97.546875 -44.71875 C 97.546875 -31.550781 93.296875 -20.804688 84.796875 -12.484375 C 76.304688 -4.160156 65.503906 0 52.390625 0 L 4.125 0 L 4.125 -12.890625 L 15.546875 -15.109375 L 15.546875 -92.09375 L 4.125 -94.3125 L 4.125 -107.28125 Z M 37.0625 -90.703125 L 37.0625 -16.5 L 51.28125 -16.5 C 58.988281 -16.5 65.03125 -19.101562 69.40625 -24.3125 C 73.78125 -29.519531 75.96875 -36.320312 75.96875 -44.71875 L 75.96875 -62.625 C 75.96875 -70.925781 73.78125 -77.679688 69.40625 -82.890625 C 65.03125 -88.097656 58.988281 -90.703125 51.28125 -90.703125 Z M 37.0625 -90.703125 "/></g></g><g transform="translate(456.183572, 146.586816)"><g><path d="M 4.640625 -40.59375 C 4.640625 -52.476562 7.96875 -62.210938 14.625 -69.796875 C 21.28125 -77.390625 30.476562 -81.1875 42.21875 -81.1875 C 54.007812 -81.1875 63.226562 -77.40625 69.875 -69.84375 C 76.53125 -62.28125 79.859375 -52.53125 79.859375 -40.59375 L 79.859375 -39.046875 C 79.859375 -27.066406 76.53125 -17.304688 69.875 -9.765625 C 63.226562 -2.222656 54.054688 1.546875 42.359375 1.546875 C 30.523438 1.546875 21.28125 -2.222656 14.625 -9.765625 C 7.96875 -17.304688 4.640625 -27.066406 4.640625 -39.046875 Z M 26.15625 -39.046875 C 26.15625 -31.773438 27.429688 -25.941406 29.984375 -21.546875 C 32.535156 -17.148438 36.660156 -14.953125 42.359375 -14.953125 C 47.910156 -14.953125 51.972656 -17.160156 54.546875 -21.578125 C 57.128906 -26.003906 58.421875 -31.828125 58.421875 -39.046875 L 58.421875 -40.59375 C 58.421875 -47.664062 57.117188 -53.4375 54.515625 -57.90625 C 51.910156 -62.375 47.8125 -64.609375 42.21875 -64.609375 C 36.613281 -64.609375 32.535156 -62.375 29.984375 -57.90625 C 27.429688 -53.4375 26.15625 -47.664062 26.15625 -40.59375 Z M 26.15625 -39.046875 "/></g></g><g transform="translate(540.769083, 146.586816)"><g><path d="M 6.265625 -12.890625 L 16.578125 -15.109375 L 16.578125 -64.546875 L 5.15625 -66.75 L 5.15625 -79.71875 L 36.625 -79.71875 L 37.578125 -68.078125 C 39.441406 -72.203125 41.847656 -75.414062 44.796875 -77.71875 C 47.742188 -80.03125 51.15625 -81.1875 55.03125 -81.1875 C 56.164062 -81.1875 57.359375 -81.097656 58.609375 -80.921875 C 59.859375 -80.753906 60.898438 -80.550781 61.734375 -80.3125 L 59.453125 -60.703125 L 50.609375 -60.9375 C 47.472656 -60.9375 44.875 -60.320312 42.8125 -59.09375 C 40.75 -57.863281 39.175781 -56.117188 38.09375 -53.859375 L 38.09375 -15.109375 L 48.40625 -12.890625 L 48.40625 0 L 6.265625 0 Z M 6.265625 -12.890625 "/></g></g><g transform="translate(604.281897, 146.586816)"><g/></g><g transform="translate(641.269638, 146.586816)"><g><path d="M 4.046875 -94.3125 L 4.046875 -107.28125 L 48.484375 -107.28125 L 48.484375 -94.3125 L 36.984375 -92.09375 L 36.984375 -15.109375 L 48.484375 -12.890625 L 48.484375 0 L 4.046875 0 L 4.046875 -12.890625 L 15.546875 -15.109375 L 15.546875 -92.09375 Z M 4.046875 -94.3125 "/></g></g><g transform="translate(693.804019, 146.586816)"><g><path d="M 3.46875 -12.890625 L 13.78125 -15.109375 L 13.78125 -64.546875 L 2.359375 -66.75 L 2.359375 -79.71875 L 33.8125 -79.71875 L 34.78125 -68.296875 C 37.425781 -72.367188 40.6875 -75.535156 44.5625 -77.796875 C 48.445312 -80.054688 52.796875 -81.1875 57.609375 -81.1875 C 65.671875 -81.1875 71.957031 -78.65625 76.46875 -73.59375 C 80.988281 -68.539062 83.25 -60.613281 83.25 -49.8125 L 83.25 -15.109375 L 93.5625 -12.890625 L 93.5625 0 L 52.453125 0 L 52.453125 -12.890625 L 61.671875 -15.109375 L 61.671875 -49.734375 C 61.671875 -55.085938 60.585938 -58.878906 58.421875 -61.109375 C 56.265625 -63.347656 53 -64.46875 48.625 -64.46875 C 45.78125 -64.46875 43.226562 -63.890625 40.96875 -62.734375 C 38.707031 -61.578125 36.816406 -59.945312 35.296875 -57.84375 L 35.296875 -15.109375 L 43.984375 -12.890625 L 43.984375 0 L 3.46875 0 Z M 3.46875 -12.890625 "/></g></g><g transform="translate(789.589005, 146.586816)"><g><path d="M 42.0625 -14.953125 C 45.894531 -14.953125 48.960938 -16.066406 51.265625 -18.296875 C 53.578125 -20.535156 54.734375 -23.523438 54.734375 -27.265625 L 74.1875 -27.265625 L 74.40625 -26.8125 C 74.601562 -18.757812 71.582031 -12.019531 65.34375 -6.59375 C 59.113281 -1.164062 51.351562 1.546875 42.0625 1.546875 C 30.175781 1.546875 21.015625 -2.207031 14.578125 -9.71875 C 8.148438 -17.238281 4.9375 -26.894531 4.9375 -38.6875 L 4.9375 -40.890625 C 4.9375 -52.628906 8.238281 -62.28125 14.84375 -69.84375 C 21.445312 -77.40625 30.863281 -81.1875 43.09375 -81.1875 C 49.53125 -81.1875 55.300781 -80.226562 60.40625 -78.3125 C 65.519531 -76.40625 69.769531 -73.707031 73.15625 -70.21875 L 73.453125 -48.921875 L 56 -48.921875 L 52.453125 -61.375 C 51.378906 -62.300781 50.054688 -63.070312 48.484375 -63.6875 C 46.910156 -64.300781 45.113281 -64.609375 43.09375 -64.609375 C 37.007812 -64.609375 32.710938 -62.398438 30.203125 -57.984375 C 27.703125 -53.566406 26.453125 -47.867188 26.453125 -40.890625 L 26.453125 -38.6875 C 26.453125 -31.5625 27.601562 -25.820312 29.90625 -21.46875 C 32.21875 -17.125 36.269531 -14.953125 42.0625 -14.953125 Z M 42.0625 -14.953125 "/></g></g></g></svg>